<svg width="498" height="69" viewBox="0 0 498 69" fill="none" xmlns="http://www.w3.org/2000/svg">
<rect width="498" height="69" rx="5" fill="#282C33"/>
<rect x="16.5" y="16.5" width="108" height="36" stroke="#C778DD"/>
<path d="M33.912 40V28.96H35.768V38.448H40.712L40.512 40H33.912ZM47.6338 31.552V38.688H49.9298V40H43.3138V38.688H45.8418V32.864H43.3938V31.552H47.6338ZM46.3858 27.416C46.7378 27.416 47.0204 27.5227 47.2338 27.736C47.4524 27.9493 47.5618 28.216 47.5618 28.536C47.5618 28.856 47.4524 29.1253 47.2338 29.344C47.0204 29.5627 46.7378 29.672 46.3858 29.672C46.0444 29.672 45.7644 29.5627 45.5458 29.344C45.3271 29.1253 45.2178 28.856 45.2178 28.536C45.2178 28.216 45.3271 27.9493 45.5458 27.736C45.7644 27.5227 46.0444 27.416 46.3858 27.416ZM60.0115 31.552L57.0355 40H54.9395L51.9635 31.552H53.8835L56.0275 38.512L58.1795 31.552H60.0115ZM63.6933 36.352C63.7306 36.928 63.8533 37.4 64.0613 37.768C64.2693 38.1307 64.5413 38.3973 64.8773 38.568C65.2186 38.7387 65.5919 38.824 65.9973 38.824C66.4133 38.824 66.7973 38.76 67.1493 38.632C67.5013 38.504 67.8559 38.3227 68.2133 38.088L68.9893 39.16C68.5946 39.48 68.1333 39.736 67.6053 39.928C67.0773 40.12 66.5119 40.216 65.9093 40.216C65.0346 40.216 64.2933 40.0293 63.6853 39.656C63.0826 39.2827 62.6239 38.7627 62.3093 38.096C61.9946 37.4293 61.8372 36.6587 61.8372 35.784C61.8372 34.936 61.9919 34.1787 62.3013 33.512C62.6106 32.84 63.0533 32.3093 63.6293 31.92C64.2053 31.5253 64.8933 31.328 65.6933 31.328C66.4453 31.328 67.0906 31.4987 67.6293 31.84C68.1733 32.1813 68.5919 32.6667 68.8853 33.296C69.1839 33.92 69.3333 34.672 69.3333 35.552C69.3333 35.696 69.3279 35.84 69.3173 35.984C69.3119 36.1227 69.3039 36.2453 69.2933 36.352H63.6933ZM65.7093 32.656C65.1493 32.656 64.6853 32.856 64.3173 33.256C63.9546 33.656 63.7439 34.28 63.6853 35.128H67.5973C67.5813 34.3333 67.4106 33.7227 67.0853 33.296C66.7653 32.8693 66.3066 32.656 65.7093 32.656ZM89.0442 30.384L89.8682 31.68L84.3962 34.984L89.8682 38.288L88.9882 39.576L82.8522 35.752V34.216L89.0442 30.384ZM99.6842 30.384L105.868 34.208V35.752L99.7323 39.576L98.8522 38.312L104.332 34.984L98.8522 31.704L99.6842 30.384ZM100.516 33.696L101.652 34.24C101.471 34.6187 101.258 34.976 101.012 35.312C100.772 35.648 100.484 35.9227 100.148 36.136C99.8176 36.3493 99.4149 36.456 98.9402 36.456C98.5616 36.456 98.2336 36.376 97.9562 36.216C97.6736 36.056 97.4202 35.8693 97.1962 35.656C96.9669 35.4427 96.7456 35.256 96.5322 35.096C96.3136 34.936 96.0789 34.856 95.8282 34.856C95.5829 34.856 95.3589 34.936 95.1562 35.096C94.9482 35.256 94.7376 35.4427 94.5242 35.656C94.3109 35.8693 94.0709 36.056 93.8042 36.216C93.5322 36.376 93.2069 36.456 92.8282 36.456C92.4496 36.456 92.1216 36.376 91.8442 36.216C91.5616 36.056 91.3082 35.8693 91.0842 35.656C90.8549 35.4427 90.6336 35.256 90.4202 35.096C90.2016 34.936 89.9669 34.856 89.7162 34.856C89.3856 34.856 89.1029 34.9813 88.8682 35.232C88.6282 35.4773 88.4042 35.792 88.1962 36.176L87.0602 35.64C87.2469 35.272 87.4602 34.92 87.7002 34.584C87.9349 34.2427 88.2202 33.9627 88.5562 33.744C88.8922 33.52 89.2976 33.408 89.7722 33.408C90.1722 33.408 90.5136 33.488 90.7962 33.648C91.0789 33.808 91.3322 33.9947 91.5562 34.208C91.7802 34.4213 91.9962 34.608 92.2042 34.768C92.4122 34.928 92.6389 35.008 92.8842 35.008C93.1242 35.008 93.3429 34.928 93.5402 34.768C93.7376 34.608 93.9429 34.4213 94.1562 34.208C94.3642 33.9947 94.6042 33.808 94.8762 33.648C95.1482 33.488 95.4842 33.408 95.8842 33.408C96.2842 33.408 96.6256 33.488 96.9082 33.648C97.1909 33.808 97.4442 33.9947 97.6682 34.208C97.8922 34.4213 98.1082 34.608 98.3162 34.768C98.5242 34.928 98.7509 35.008 98.9962 35.008C99.3163 35.008 99.5963 34.888 99.8363 34.648C100.082 34.4027 100.308 34.0853 100.516 33.696Z" fill="white"/>
<rect x="141.5" y="16.5" width="108" height="36" fill="#C778DD" fill-opacity="0.2"/>
<rect x="141.5" y="16.5" width="108" height="36" stroke="#C778DD"/>
<path d="M158.912 40V28.96H160.768V38.448H165.712L165.512 40H158.912ZM172.634 31.552V38.688H174.93V40H168.314V38.688H170.842V32.864H168.394V31.552H172.634ZM171.386 27.416C171.738 27.416 172.02 27.5227 172.234 27.736C172.452 27.9493 172.562 28.216 172.562 28.536C172.562 28.856 172.452 29.1253 172.234 29.344C172.02 29.5627 171.738 29.672 171.386 29.672C171.044 29.672 170.764 29.5627 170.546 29.344C170.327 29.1253 170.218 28.856 170.218 28.536C170.218 28.216 170.327 27.9493 170.546 27.736C170.764 27.5227 171.044 27.416 171.386 27.416ZM185.012 31.552L182.036 40H179.94L176.964 31.552H178.884L181.028 38.512L183.18 31.552H185.012ZM188.693 36.352C188.731 36.928 188.853 37.4 189.061 37.768C189.269 38.1307 189.541 38.3973 189.877 38.568C190.219 38.7387 190.592 38.824 190.997 38.824C191.413 38.824 191.797 38.76 192.149 38.632C192.501 38.504 192.856 38.3227 193.213 38.088L193.989 39.16C193.595 39.48 193.133 39.736 192.605 39.928C192.077 40.12 191.512 40.216 190.909 40.216C190.035 40.216 189.293 40.0293 188.685 39.656C188.083 39.2827 187.624 38.7627 187.309 38.096C186.995 37.4293 186.837 36.6587 186.837 35.784C186.837 34.936 186.992 34.1787 187.301 33.512C187.611 32.84 188.053 32.3093 188.629 31.92C189.205 31.5253 189.893 31.328 190.693 31.328C191.445 31.328 192.091 31.4987 192.629 31.84C193.173 32.1813 193.592 32.6667 193.885 33.296C194.184 33.92 194.333 34.672 194.333 35.552C194.333 35.696 194.328 35.84 194.317 35.984C194.312 36.1227 194.304 36.2453 194.293 36.352H188.693ZM190.709 32.656C190.149 32.656 189.685 32.856 189.317 33.256C188.955 33.656 188.744 34.28 188.685 35.128H192.597C192.581 34.3333 192.411 33.7227 192.085 33.296C191.765 32.8693 191.307 32.656 190.709 32.656ZM214.044 30.384L214.868 31.68L209.396 34.984L214.868 38.288L213.988 39.576L207.852 35.752V34.216L214.044 30.384ZM224.684 30.384L230.868 34.208V35.752L224.732 39.576L223.852 38.312L229.332 34.984L223.852 31.704L224.684 30.384ZM225.516 33.696L226.652 34.24C226.471 34.6187 226.258 34.976 226.012 35.312C225.772 35.648 225.484 35.9227 225.148 36.136C224.818 36.3493 224.415 36.456 223.94 36.456C223.562 36.456 223.234 36.376 222.956 36.216C222.674 36.056 222.42 35.8693 222.196 35.656C221.967 35.4427 221.746 35.256 221.532 35.096C221.314 34.936 221.079 34.856 220.828 34.856C220.583 34.856 220.359 34.936 220.156 35.096C219.948 35.256 219.738 35.4427 219.524 35.656C219.311 35.8693 219.071 36.056 218.804 36.216C218.532 36.376 218.207 36.456 217.828 36.456C217.45 36.456 217.122 36.376 216.844 36.216C216.562 36.056 216.308 35.8693 216.084 35.656C215.855 35.4427 215.634 35.256 215.42 35.096C215.202 34.936 214.967 34.856 214.716 34.856C214.386 34.856 214.103 34.9813 213.868 35.232C213.628 35.4773 213.404 35.792 213.196 36.176L212.06 35.64C212.247 35.272 212.46 34.92 212.7 34.584C212.935 34.2427 213.22 33.9627 213.556 33.744C213.892 33.52 214.298 33.408 214.772 33.408C215.172 33.408 215.514 33.488 215.796 33.648C216.079 33.808 216.332 33.9947 216.556 34.208C216.78 34.4213 216.996 34.608 217.204 34.768C217.412 34.928 217.639 35.008 217.884 35.008C218.124 35.008 218.343 34.928 218.54 34.768C218.738 34.608 218.943 34.4213 219.156 34.208C219.364 33.9947 219.604 33.808 219.876 33.648C220.148 33.488 220.484 33.408 220.884 33.408C221.284 33.408 221.626 33.488 221.908 33.648C222.191 33.808 222.444 33.9947 222.668 34.208C222.892 34.4213 223.108 34.608 223.316 34.768C223.524 34.928 223.751 35.008 223.996 35.008C224.316 35.008 224.596 34.888 224.836 34.648C225.082 34.4027 225.308 34.0853 225.516 33.696Z" fill="white"/>
<rect x="266.5" y="16.5" width="99" height="36" stroke="#ABB2BF"/>
<path d="M289.024 34.424C289.024 33.544 288.936 32.8373 288.76 32.304C288.589 31.7707 288.357 31.3653 288.064 31.088C287.776 30.8107 287.453 30.624 287.096 30.528C286.744 30.432 286.384 30.384 286.016 30.384H285V38.592H286.024C286.408 38.592 286.779 38.5307 287.136 38.408C287.493 38.2853 287.813 38.072 288.096 37.768C288.384 37.464 288.611 37.0427 288.776 36.504C288.941 35.96 289.024 35.2667 289.024 34.424ZM290.976 34.424C290.976 35.336 290.877 36.1147 290.68 36.76C290.488 37.4053 290.221 37.9413 289.88 38.368C289.544 38.7893 289.155 39.12 288.712 39.36C288.275 39.5947 287.811 39.76 287.32 39.856C286.829 39.952 286.339 40 285.848 40H283.144V28.96H285.664C286.336 28.96 286.987 29.032 287.616 29.176C288.251 29.32 288.819 29.5867 289.32 29.976C289.827 30.3653 290.229 30.9173 290.528 31.632C290.827 32.3467 290.976 33.2773 290.976 34.424ZM294.506 36.352C294.543 36.928 294.666 37.4 294.874 37.768C295.082 38.1307 295.354 38.3973 295.69 38.568C296.031 38.7387 296.404 38.824 296.81 38.824C297.226 38.824 297.61 38.76 297.962 38.632C298.314 38.504 298.668 38.3227 299.026 38.088L299.802 39.16C299.407 39.48 298.946 39.736 298.418 39.928C297.89 40.12 297.324 40.216 296.722 40.216C295.847 40.216 295.106 40.0293 294.498 39.656C293.895 39.2827 293.436 38.7627 293.122 38.096C292.807 37.4293 292.65 36.6587 292.65 35.784C292.65 34.936 292.804 34.1787 293.114 33.512C293.423 32.84 293.866 32.3093 294.442 31.92C295.018 31.5253 295.706 31.328 296.506 31.328C297.258 31.328 297.903 31.4987 298.442 31.84C298.986 32.1813 299.404 32.6667 299.698 33.296C299.996 33.92 300.146 34.672 300.146 35.552C300.146 35.696 300.14 35.84 300.13 35.984C300.124 36.1227 300.116 36.2453 300.106 36.352H294.506ZM296.522 32.656C295.962 32.656 295.498 32.856 295.13 33.256C294.767 33.656 294.556 34.28 294.498 35.128H298.41C298.394 34.3333 298.223 33.7227 297.898 33.296C297.578 32.8693 297.119 32.656 296.522 32.656ZM308.436 31.328C308.756 31.328 309.044 31.3973 309.3 31.536C309.556 31.6747 309.756 31.9173 309.9 32.264C310.049 32.6107 310.124 33.096 310.124 33.72V40H308.532V33.968C308.532 33.5253 308.5 33.208 308.436 33.016C308.377 32.824 308.22 32.728 307.964 32.728C307.761 32.728 307.556 32.792 307.348 32.92C307.14 33.0427 306.929 33.256 306.716 33.56V40H305.268V33.968C305.268 33.5253 305.236 33.208 305.172 33.016C305.113 32.824 304.956 32.728 304.7 32.728C304.492 32.728 304.284 32.792 304.076 32.92C303.873 33.0427 303.665 33.256 303.452 33.56V40H301.852V31.552H303.204L303.324 32.464C303.564 32.128 303.825 31.856 304.108 31.648C304.39 31.4347 304.732 31.328 305.132 31.328C305.452 31.328 305.742 31.408 306.004 31.568C306.265 31.728 306.457 32.008 306.58 32.408C306.814 32.088 307.081 31.8293 307.38 31.632C307.678 31.4293 308.03 31.328 308.436 31.328ZM315.589 31.328C316.416 31.328 317.112 31.512 317.677 31.88C318.243 32.248 318.669 32.7627 318.957 33.424C319.251 34.0853 319.397 34.864 319.397 35.76C319.397 36.6507 319.248 37.432 318.949 38.104C318.656 38.7707 318.224 39.2907 317.653 39.664C317.088 40.032 316.397 40.216 315.581 40.216C314.765 40.216 314.072 40.0373 313.501 39.68C312.936 39.3173 312.504 38.8027 312.205 38.136C311.912 37.4693 311.765 36.6827 311.765 35.776C311.765 34.896 311.912 34.1227 312.205 33.456C312.504 32.7893 312.939 32.2693 313.509 31.896C314.08 31.5173 314.773 31.328 315.589 31.328ZM315.589 32.72C314.944 32.72 314.459 32.968 314.133 33.464C313.808 33.9547 313.645 34.7253 313.645 35.776C313.645 36.8213 313.805 37.592 314.125 38.088C314.451 38.584 314.936 38.832 315.581 38.832C316.227 38.832 316.709 38.584 317.029 38.088C317.355 37.592 317.517 36.816 317.517 35.76C317.517 34.72 317.357 33.9547 317.037 33.464C316.717 32.968 316.235 32.72 315.589 32.72ZM335.994 28.616L345.115 34.208V35.752L335.994 41.408H334.49V28.616H335.994ZM335.994 39.592L343.571 34.984L335.994 30.44V39.592Z" fill="#ABB2BF"/>
<rect x="382.5" y="16.5" width="99" height="36" fill="#ABB2BF" fill-opacity="0.2"/>
<rect x="382.5" y="16.5" width="99" height="36" stroke="#ABB2BF"/>
<path d="M405.024 34.424C405.024 33.544 404.936 32.8373 404.76 32.304C404.589 31.7707 404.357 31.3653 404.064 31.088C403.776 30.8107 403.453 30.624 403.096 30.528C402.744 30.432 402.384 30.384 402.016 30.384H401V38.592H402.024C402.408 38.592 402.779 38.5307 403.136 38.408C403.493 38.2853 403.813 38.072 404.096 37.768C404.384 37.464 404.611 37.0427 404.776 36.504C404.941 35.96 405.024 35.2667 405.024 34.424ZM406.976 34.424C406.976 35.336 406.877 36.1147 406.68 36.76C406.488 37.4053 406.221 37.9413 405.88 38.368C405.544 38.7893 405.155 39.12 404.712 39.36C404.275 39.5947 403.811 39.76 403.32 39.856C402.829 39.952 402.339 40 401.848 40H399.144V28.96H401.664C402.336 28.96 402.987 29.032 403.616 29.176C404.251 29.32 404.819 29.5867 405.32 29.976C405.827 30.3653 406.229 30.9173 406.528 31.632C406.827 32.3467 406.976 33.2773 406.976 34.424ZM410.506 36.352C410.543 36.928 410.666 37.4 410.874 37.768C411.082 38.1307 411.354 38.3973 411.69 38.568C412.031 38.7387 412.404 38.824 412.81 38.824C413.226 38.824 413.61 38.76 413.962 38.632C414.314 38.504 414.668 38.3227 415.026 38.088L415.802 39.16C415.407 39.48 414.946 39.736 414.418 39.928C413.89 40.12 413.324 40.216 412.722 40.216C411.847 40.216 411.106 40.0293 410.498 39.656C409.895 39.2827 409.436 38.7627 409.122 38.096C408.807 37.4293 408.65 36.6587 408.65 35.784C408.65 34.936 408.804 34.1787 409.114 33.512C409.423 32.84 409.866 32.3093 410.442 31.92C411.018 31.5253 411.706 31.328 412.506 31.328C413.258 31.328 413.903 31.4987 414.442 31.84C414.986 32.1813 415.404 32.6667 415.698 33.296C415.996 33.92 416.146 34.672 416.146 35.552C416.146 35.696 416.14 35.84 416.13 35.984C416.124 36.1227 416.116 36.2453 416.106 36.352H410.506ZM412.522 32.656C411.962 32.656 411.498 32.856 411.13 33.256C410.767 33.656 410.556 34.28 410.498 35.128H414.41C414.394 34.3333 414.223 33.7227 413.898 33.296C413.578 32.8693 413.119 32.656 412.522 32.656ZM424.436 31.328C424.756 31.328 425.044 31.3973 425.3 31.536C425.556 31.6747 425.756 31.9173 425.9 32.264C426.049 32.6107 426.124 33.096 426.124 33.72V40H424.532V33.968C424.532 33.5253 424.5 33.208 424.436 33.016C424.377 32.824 424.22 32.728 423.964 32.728C423.761 32.728 423.556 32.792 423.348 32.92C423.14 33.0427 422.929 33.256 422.716 33.56V40H421.268V33.968C421.268 33.5253 421.236 33.208 421.172 33.016C421.113 32.824 420.956 32.728 420.7 32.728C420.492 32.728 420.284 32.792 420.076 32.92C419.873 33.0427 419.665 33.256 419.452 33.56V40H417.852V31.552H419.204L419.324 32.464C419.564 32.128 419.825 31.856 420.108 31.648C420.39 31.4347 420.732 31.328 421.132 31.328C421.452 31.328 421.742 31.408 422.004 31.568C422.265 31.728 422.457 32.008 422.58 32.408C422.814 32.088 423.081 31.8293 423.38 31.632C423.678 31.4293 424.03 31.328 424.436 31.328ZM431.589 31.328C432.416 31.328 433.112 31.512 433.677 31.88C434.243 32.248 434.669 32.7627 434.957 33.424C435.251 34.0853 435.397 34.864 435.397 35.76C435.397 36.6507 435.248 37.432 434.949 38.104C434.656 38.7707 434.224 39.2907 433.653 39.664C433.088 40.032 432.397 40.216 431.581 40.216C430.765 40.216 430.072 40.0373 429.501 39.68C428.936 39.3173 428.504 38.8027 428.205 38.136C427.912 37.4693 427.765 36.6827 427.765 35.776C427.765 34.896 427.912 34.1227 428.205 33.456C428.504 32.7893 428.939 32.2693 429.509 31.896C430.08 31.5173 430.773 31.328 431.589 31.328ZM431.589 32.72C430.944 32.72 430.459 32.968 430.133 33.464C429.808 33.9547 429.645 34.7253 429.645 35.776C429.645 36.8213 429.805 37.592 430.125 38.088C430.451 38.584 430.936 38.832 431.581 38.832C432.227 38.832 432.709 38.584 433.029 38.088C433.355 37.592 433.517 36.816 433.517 35.76C433.517 34.72 433.357 33.9547 433.037 33.464C432.717 32.968 432.235 32.72 431.589 32.72ZM451.994 28.616L461.115 34.208V35.752L451.994 41.408H450.49V28.616H451.994ZM451.994 39.592L459.571 34.984L451.994 30.44V39.592Z" fill="#ABB2BF"/>
</svg>
