<svg width="81" height="127" viewBox="0 0 81 127" fill="none" xmlns="http://www.w3.org/2000/svg">
<rect width="81" height="127" rx="5" fill="#282C33"/>
<path d="M23.336 24.704L22.864 28.248H24.16V29.288H22.712L22.376 32H21.224L21.584 29.288H19.256L18.904 32H17.752L18.112 29.288H16.848V28.248H18.248L18.736 24.704H17.44V23.656H18.872L19.224 20.984H20.376L19.992 23.656H22.344L22.696 20.984H23.848L23.472 23.656H24.752V24.704H23.336ZM19.392 28.248H21.72L22.208 24.704H19.864L19.392 28.248Z" fill="#C778DD"/>
<path d="M28.952 20.056V24.728C29.2827 24.2853 29.688 23.9547 30.168 23.736C30.6533 23.512 31.144 23.4 31.64 23.4C32.4613 23.4 33.0613 23.6187 33.44 24.056C33.8187 24.4933 34.008 25.1013 34.008 25.88V32H32.664V25.912C32.664 25.4053 32.5467 25.0373 32.312 24.808C32.0773 24.5733 31.7093 24.456 31.208 24.456C30.888 24.456 30.584 24.528 30.296 24.672C30.008 24.816 29.7493 24.9947 29.52 25.208C29.2907 25.4213 29.1013 25.64 28.952 25.864V32H27.608V20.2L28.952 20.056ZM40.4098 23.4C41.2044 23.4 41.8684 23.5813 42.4018 23.944C42.9404 24.3013 43.3431 24.808 43.6098 25.464C43.8818 26.12 44.0178 26.8933 44.0178 27.784C44.0178 28.6427 43.8791 29.4027 43.6018 30.064C43.3244 30.7253 42.9164 31.2453 42.3778 31.624C41.8444 31.9973 41.1831 32.184 40.3938 32.184C39.6044 32.184 38.9404 32.0027 38.4018 31.64C37.8631 31.2773 37.4551 30.768 37.1778 30.112C36.9058 29.4507 36.7697 28.68 36.7697 27.8C36.7697 26.9307 36.9084 26.1653 37.1858 25.504C37.4631 24.8427 37.8711 24.328 38.4098 23.96C38.9538 23.5867 39.6204 23.4 40.4098 23.4ZM40.4098 24.496C39.6844 24.496 39.1351 24.7653 38.7618 25.304C38.3938 25.8373 38.2098 26.6693 38.2098 27.8C38.2098 28.9093 38.3911 29.7333 38.7538 30.272C39.1218 30.8107 39.6684 31.08 40.3938 31.08C41.1191 31.08 41.6631 30.8107 42.0258 30.272C42.3938 29.7333 42.5778 28.904 42.5778 27.784C42.5778 26.664 42.3964 25.8373 42.0338 25.304C41.6711 24.7653 41.1298 24.496 40.4098 24.496ZM52.3475 23.4C52.6195 23.4 52.8782 23.4587 53.1235 23.576C53.3742 23.6933 53.5795 23.92 53.7395 24.256C53.8995 24.592 53.9795 25.0827 53.9795 25.728V32H52.7315V25.944C52.7315 25.416 52.6995 25.0347 52.6355 24.8C52.5715 24.5653 52.3875 24.448 52.0835 24.448C51.8328 24.448 51.5822 24.528 51.3315 24.688C51.0862 24.8427 50.8462 25.0987 50.6115 25.456V32H49.3555V25.944C49.3555 25.416 49.3235 25.0347 49.2595 24.8C49.1955 24.5653 49.0115 24.448 48.7075 24.448C48.4462 24.448 48.1928 24.528 47.9475 24.688C47.7075 24.8427 47.4702 25.0987 47.2355 25.456V32H45.9955V23.576H47.0515L47.1315 24.552C47.3608 24.2267 47.6168 23.9547 47.8995 23.736C48.1875 23.512 48.5422 23.4 48.9635 23.4C49.2835 23.4 49.5848 23.4773 49.8675 23.632C50.1502 23.7813 50.3582 24.0747 50.4915 24.512C50.7208 24.1813 50.9795 23.9147 51.2675 23.712C51.5555 23.504 51.9155 23.4 52.3475 23.4ZM57.4453 28.264C57.4719 28.9147 57.5973 29.448 57.8213 29.864C58.0453 30.2747 58.3413 30.5787 58.7093 30.776C59.0773 30.968 59.4773 31.064 59.9093 31.064C60.3413 31.064 60.7306 31 61.0773 30.872C61.4293 30.744 61.7893 30.5547 62.1573 30.304L62.7893 31.192C62.3946 31.5013 61.9439 31.744 61.4373 31.92C60.9359 32.096 60.4213 32.184 59.8933 32.184C59.0773 32.184 58.3813 32 57.8053 31.632C57.2293 31.264 56.7893 30.752 56.4853 30.096C56.1866 29.4347 56.0373 28.6693 56.0373 27.8C56.0373 26.9467 56.1893 26.1893 56.4933 25.528C56.7973 24.8667 57.2239 24.3467 57.7733 23.968C58.3226 23.5893 58.9706 23.4 59.7173 23.4C60.4266 23.4 61.0373 23.568 61.5493 23.904C62.0613 24.2347 62.4533 24.7093 62.7253 25.328C63.0026 25.9413 63.1413 26.6747 63.1413 27.528C63.1413 27.672 63.1386 27.808 63.1333 27.936C63.1279 28.0587 63.1199 28.168 63.1093 28.264H57.4453ZM59.7333 24.504C59.1093 24.504 58.5866 24.7253 58.1653 25.168C57.7493 25.6107 57.5119 26.296 57.4533 27.224H61.8453C61.8293 26.3227 61.6319 25.6453 61.2533 25.192C60.8746 24.7333 60.3679 24.504 59.7333 24.504Z" fill="#ABB2BF"/>
<path d="M23.336 61.704L22.864 65.248H24.16V66.288H22.712L22.376 69H21.224L21.584 66.288H19.256L18.904 69H17.752L18.112 66.288H16.848V65.248H18.248L18.736 61.704H17.44V60.656H18.872L19.224 57.984H20.376L19.992 60.656H22.344L22.696 57.984H23.848L23.472 60.656H24.752V61.704H23.336ZM19.392 65.248H21.72L22.208 61.704H19.864L19.392 65.248Z" fill="#C778DD"/>
<path d="M28.952 57.056V61.728C29.2827 61.2853 29.688 60.9547 30.168 60.736C30.6533 60.512 31.144 60.4 31.64 60.4C32.4613 60.4 33.0613 60.6187 33.44 61.056C33.8187 61.4933 34.008 62.1013 34.008 62.88V69H32.664V62.912C32.664 62.4053 32.5467 62.0373 32.312 61.808C32.0773 61.5733 31.7093 61.456 31.208 61.456C30.888 61.456 30.584 61.528 30.296 61.672C30.008 61.816 29.7493 61.9947 29.52 62.208C29.2907 62.4213 29.1013 62.64 28.952 62.864V69H27.608V57.2L28.952 57.056ZM40.4098 60.4C41.2044 60.4 41.8684 60.5813 42.4018 60.944C42.9404 61.3013 43.3431 61.808 43.6098 62.464C43.8818 63.12 44.0178 63.8933 44.0178 64.784C44.0178 65.6427 43.8791 66.4027 43.6018 67.064C43.3244 67.7253 42.9164 68.2453 42.3778 68.624C41.8444 68.9973 41.1831 69.184 40.3938 69.184C39.6044 69.184 38.9404 69.0027 38.4018 68.64C37.8631 68.2773 37.4551 67.768 37.1778 67.112C36.9058 66.4507 36.7697 65.68 36.7697 64.8C36.7697 63.9307 36.9084 63.1653 37.1858 62.504C37.4631 61.8427 37.8711 61.328 38.4098 60.96C38.9538 60.5867 39.6204 60.4 40.4098 60.4ZM40.4098 61.496C39.6844 61.496 39.1351 61.7653 38.7618 62.304C38.3938 62.8373 38.2098 63.6693 38.2098 64.8C38.2098 65.9093 38.3911 66.7333 38.7538 67.272C39.1218 67.8107 39.6684 68.08 40.3938 68.08C41.1191 68.08 41.6631 67.8107 42.0258 67.272C42.3938 66.7333 42.5778 65.904 42.5778 64.784C42.5778 63.664 42.3964 62.8373 42.0338 62.304C41.6711 61.7653 41.1298 61.496 40.4098 61.496ZM52.3475 60.4C52.6195 60.4 52.8782 60.4587 53.1235 60.576C53.3742 60.6933 53.5795 60.92 53.7395 61.256C53.8995 61.592 53.9795 62.0827 53.9795 62.728V69H52.7315V62.944C52.7315 62.416 52.6995 62.0347 52.6355 61.8C52.5715 61.5653 52.3875 61.448 52.0835 61.448C51.8328 61.448 51.5822 61.528 51.3315 61.688C51.0862 61.8427 50.8462 62.0987 50.6115 62.456V69H49.3555V62.944C49.3555 62.416 49.3235 62.0347 49.2595 61.8C49.1955 61.5653 49.0115 61.448 48.7075 61.448C48.4462 61.448 48.1928 61.528 47.9475 61.688C47.7075 61.8427 47.4702 62.0987 47.2355 62.456V69H45.9955V60.576H47.0515L47.1315 61.552C47.3608 61.2267 47.6168 60.9547 47.8995 60.736C48.1875 60.512 48.5422 60.4 48.9635 60.4C49.2835 60.4 49.5848 60.4773 49.8675 60.632C50.1502 60.7813 50.3582 61.0747 50.4915 61.512C50.7208 61.1813 50.9795 60.9147 51.2675 60.712C51.5555 60.504 51.9155 60.4 52.3475 60.4ZM57.4453 65.264C57.4719 65.9147 57.5973 66.448 57.8213 66.864C58.0453 67.2747 58.3413 67.5787 58.7093 67.776C59.0773 67.968 59.4773 68.064 59.9093 68.064C60.3413 68.064 60.7306 68 61.0773 67.872C61.4293 67.744 61.7893 67.5547 62.1573 67.304L62.7893 68.192C62.3946 68.5013 61.9439 68.744 61.4373 68.92C60.9359 69.096 60.4213 69.184 59.8933 69.184C59.0773 69.184 58.3813 69 57.8053 68.632C57.2293 68.264 56.7893 67.752 56.4853 67.096C56.1866 66.4347 56.0373 65.6693 56.0373 64.8C56.0373 63.9467 56.1893 63.1893 56.4933 62.528C56.7973 61.8667 57.2239 61.3467 57.7733 60.968C58.3226 60.5893 58.9706 60.4 59.7173 60.4C60.4266 60.4 61.0373 60.568 61.5493 60.904C62.0613 61.2347 62.4533 61.7093 62.7253 62.328C63.0026 62.9413 63.1413 63.6747 63.1413 64.528C63.1413 64.672 63.1386 64.808 63.1333 64.936C63.1279 65.0587 63.1199 65.168 63.1093 65.264H57.4453ZM59.7333 61.504C59.1093 61.504 58.5866 61.7253 58.1653 62.168C57.7493 62.6107 57.5119 63.296 57.4533 64.224H61.8453C61.8293 63.3227 61.6319 62.6453 61.2533 62.192C60.8746 61.7333 60.3679 61.504 59.7333 61.504Z" fill="white"/>
<path d="M23.536 98.76L23.088 102.16H24.272V103.44H22.912L22.584 106H21.08L21.416 103.44H19.392L19.056 106H17.552L17.888 103.44H16.744V102.16H18.056L18.52 98.76H17.336V97.472H18.688L19.016 94.96H20.528L20.176 97.472H22.208L22.544 94.96H24.048L23.704 97.472H24.864V98.76H23.536ZM19.56 102.16H21.584L22.04 98.76H20.008L19.56 102.16Z" fill="#C778DD"/>
<path d="M29.216 93.984V98.584C29.5573 98.168 29.9573 97.856 30.416 97.648C30.8747 97.4347 31.3467 97.328 31.832 97.328C32.6267 97.328 33.2187 97.5493 33.608 97.992C33.9973 98.4293 34.192 99.0453 34.192 99.84V106H32.4V100.12C32.4 99.6133 32.304 99.2507 32.112 99.032C31.92 98.808 31.6107 98.696 31.184 98.696C30.9173 98.696 30.6613 98.7573 30.416 98.88C30.176 98.9973 29.952 99.152 29.744 99.344C29.5413 99.536 29.3653 99.7413 29.216 99.96V106H27.424V94.176L29.216 93.984ZM40.4018 97.328C41.2284 97.328 41.9244 97.512 42.4898 97.88C43.0551 98.248 43.4818 98.7627 43.7698 99.424C44.0631 100.085 44.2098 100.864 44.2098 101.76C44.2098 102.651 44.0604 103.432 43.7618 104.104C43.4684 104.771 43.0364 105.291 42.4658 105.664C41.9004 106.032 41.2098 106.216 40.3938 106.216C39.5778 106.216 38.8844 106.037 38.3138 105.68C37.7484 105.317 37.3164 104.803 37.0178 104.136C36.7244 103.469 36.5778 102.683 36.5778 101.776C36.5778 100.896 36.7244 100.123 37.0178 99.456C37.3164 98.7893 37.7511 98.2693 38.3218 97.896C38.8924 97.5173 39.5858 97.328 40.4018 97.328ZM40.4018 98.72C39.7564 98.72 39.2711 98.968 38.9458 99.464C38.6204 99.9547 38.4578 100.725 38.4578 101.776C38.4578 102.821 38.6178 103.592 38.9378 104.088C39.2631 104.584 39.7484 104.832 40.3938 104.832C41.0391 104.832 41.5218 104.584 41.8418 104.088C42.1671 103.592 42.3298 102.816 42.3298 101.76C42.3298 100.72 42.1698 99.9547 41.8498 99.464C41.5298 98.968 41.0471 98.72 40.4018 98.72ZM52.4355 97.328C52.7555 97.328 53.0435 97.3973 53.2995 97.536C53.5555 97.6747 53.7555 97.9173 53.8995 98.264C54.0488 98.6107 54.1235 99.096 54.1235 99.72V106H52.5315V99.968C52.5315 99.5253 52.4995 99.208 52.4355 99.016C52.3768 98.824 52.2195 98.728 51.9635 98.728C51.7608 98.728 51.5555 98.792 51.3475 98.92C51.1395 99.0427 50.9288 99.256 50.7155 99.56V106H49.2675V99.968C49.2675 99.5253 49.2355 99.208 49.1715 99.016C49.1128 98.824 48.9555 98.728 48.6995 98.728C48.4915 98.728 48.2835 98.792 48.0755 98.92C47.8728 99.0427 47.6648 99.256 47.4515 99.56V106H45.8515V97.552H47.2035L47.3235 98.464C47.5635 98.128 47.8248 97.856 48.1075 97.648C48.3902 97.4347 48.7315 97.328 49.1315 97.328C49.4515 97.328 49.7422 97.408 50.0035 97.568C50.2648 97.728 50.4568 98.008 50.5795 98.408C50.8142 98.088 51.0808 97.8293 51.3795 97.632C51.6782 97.4293 52.0302 97.328 52.4355 97.328ZM57.6933 102.352C57.7306 102.928 57.8533 103.4 58.0613 103.768C58.2693 104.131 58.5413 104.397 58.8773 104.568C59.2186 104.739 59.5919 104.824 59.9973 104.824C60.4133 104.824 60.7973 104.76 61.1493 104.632C61.5013 104.504 61.8559 104.323 62.2133 104.088L62.9893 105.16C62.5946 105.48 62.1333 105.736 61.6053 105.928C61.0773 106.12 60.5119 106.216 59.9093 106.216C59.0346 106.216 58.2933 106.029 57.6853 105.656C57.0826 105.283 56.6239 104.763 56.3093 104.096C55.9946 103.429 55.8372 102.659 55.8372 101.784C55.8372 100.936 55.9919 100.179 56.3013 99.512C56.6106 98.84 57.0533 98.3093 57.6293 97.92C58.2053 97.5253 58.8933 97.328 59.6933 97.328C60.4453 97.328 61.0906 97.4987 61.6293 97.84C62.1733 98.1813 62.5919 98.6667 62.8853 99.296C63.1839 99.92 63.3333 100.672 63.3333 101.552C63.3333 101.696 63.3279 101.84 63.3173 101.984C63.3119 102.123 63.3039 102.245 63.2933 102.352H57.6933ZM59.7093 98.656C59.1493 98.656 58.6853 98.856 58.3173 99.256C57.9546 99.656 57.7439 100.28 57.6853 101.128H61.5973C61.5813 100.333 61.4106 99.7227 61.0853 99.296C60.7653 98.8693 60.3066 98.656 59.7093 98.656Z" fill="white"/>
</svg>
