<svg width="148" height="37" viewBox="0 0 148 37" fill="none" xmlns="http://www.w3.org/2000/svg">
<rect x="0.5" y="0.5" width="147" height="36" stroke="#C778DD"/>
<path d="M21.728 12.736C22.4747 12.736 23.104 12.8347 23.616 13.032C24.1333 13.224 24.6133 13.5013 25.056 13.864L24.088 15.016C23.7573 14.7387 23.4027 14.5333 23.024 14.4C22.6453 14.2667 22.2427 14.2 21.816 14.2C21.2667 14.2 20.76 14.3387 20.296 14.616C19.832 14.8933 19.4587 15.344 19.176 15.968C18.8987 16.592 18.76 17.424 18.76 18.464C18.76 19.4827 18.8933 20.304 19.16 20.928C19.4267 21.552 19.792 22.0053 20.256 22.288C20.72 22.5707 21.24 22.712 21.816 22.712C22.408 22.712 22.8987 22.616 23.288 22.424C23.6773 22.2267 24.0213 22.0053 24.32 21.76L25.216 22.904C24.848 23.2613 24.3813 23.5707 23.816 23.832C23.2507 24.088 22.5627 24.216 21.752 24.216C20.8187 24.216 19.9787 23.9973 19.232 23.56C18.4907 23.1173 17.904 22.4693 17.472 21.616C17.0453 20.7627 16.832 19.712 16.832 18.464C16.832 17.2267 17.0533 16.184 17.496 15.336C17.9387 14.4827 18.5307 13.8373 19.272 13.4C20.0133 12.9573 20.832 12.736 21.728 12.736ZM30.4018 15.328C31.2284 15.328 31.9244 15.512 32.4898 15.88C33.0551 16.248 33.4818 16.7627 33.7698 17.424C34.0631 18.0853 34.2098 18.864 34.2098 19.76C34.2098 20.6507 34.0604 21.432 33.7618 22.104C33.4684 22.7707 33.0364 23.2907 32.4658 23.664C31.9004 24.032 31.2098 24.216 30.3938 24.216C29.5778 24.216 28.8844 24.0373 28.3138 23.68C27.7484 23.3173 27.3164 22.8027 27.0178 22.136C26.7244 21.4693 26.5778 20.6827 26.5778 19.776C26.5778 18.896 26.7244 18.1227 27.0178 17.456C27.3164 16.7893 27.7511 16.2693 28.3218 15.896C28.8924 15.5173 29.5858 15.328 30.4018 15.328ZM30.4018 16.72C29.7564 16.72 29.2711 16.968 28.9458 17.464C28.6204 17.9547 28.4578 18.7253 28.4578 19.776C28.4578 20.8213 28.6178 21.592 28.9378 22.088C29.2631 22.584 29.7484 22.832 30.3938 22.832C31.0391 22.832 31.5218 22.584 31.8418 22.088C32.1671 21.592 32.3298 20.816 32.3298 19.76C32.3298 18.72 32.1698 17.9547 31.8498 17.464C31.5298 16.968 31.0471 16.72 30.4018 16.72ZM36.6115 24V15.552H38.1555L38.2915 16.648C38.6435 16.216 39.0595 15.888 39.5395 15.664C40.0195 15.44 40.5128 15.328 41.0195 15.328C41.8088 15.328 42.3982 15.5493 42.7875 15.992C43.1822 16.4293 43.3795 17.0453 43.3795 17.84V24H41.5875V18.728C41.5875 18.2373 41.5582 17.8427 41.4995 17.544C41.4408 17.2453 41.3235 17.0293 41.1475 16.896C40.9768 16.7627 40.7208 16.696 40.3795 16.696C40.1075 16.696 39.8488 16.7547 39.6035 16.872C39.3582 16.9893 39.1342 17.144 38.9315 17.336C38.7288 17.5227 38.5528 17.7227 38.4035 17.936V24H36.6115ZM53.2613 23.552C52.9519 23.7493 52.5813 23.9093 52.1493 24.032C51.7173 24.1547 51.2666 24.216 50.7973 24.216C49.8159 24.216 49.0693 23.9627 48.5573 23.456C48.0506 22.944 47.7973 22.272 47.7973 21.44V16.856H45.9173V15.552H47.7973V13.664L49.5893 13.448V15.552H52.4373L52.2373 16.856H49.5893V21.424C49.5893 21.8773 49.7013 22.216 49.9253 22.44C50.1546 22.6587 50.5279 22.768 51.0453 22.768C51.3546 22.768 51.6399 22.7307 51.9013 22.656C52.1626 22.5813 52.3999 22.4853 52.6133 22.368L53.2613 23.552ZM62.255 21.928C62.255 22.2587 62.3057 22.5013 62.407 22.656C62.5083 22.8053 62.671 22.9173 62.895 22.992L62.495 24.208C62.079 24.16 61.7217 24.0453 61.423 23.864C61.1243 23.6827 60.8977 23.408 60.743 23.04C60.4337 23.4293 60.0417 23.7227 59.567 23.92C59.0923 24.1173 58.5857 24.216 58.047 24.216C57.1937 24.216 56.5163 23.976 56.015 23.496C55.519 23.0107 55.271 22.376 55.271 21.592C55.271 20.7013 55.6177 20.016 56.311 19.536C57.0043 19.056 57.9963 18.816 59.287 18.816H60.495V18.264C60.495 17.72 60.3297 17.328 59.999 17.088C59.6737 16.848 59.2123 16.728 58.615 16.728C58.3377 16.728 58.0017 16.7653 57.607 16.84C57.2123 16.9093 56.799 17.0187 56.367 17.168L55.927 15.904C56.455 15.7067 56.9723 15.5627 57.479 15.472C57.9857 15.376 58.455 15.328 58.887 15.328C60.0177 15.328 60.8603 15.5787 61.415 16.08C61.975 16.5813 62.255 17.2747 62.255 18.16V21.928ZM58.591 22.896C58.9537 22.896 59.3083 22.8 59.655 22.608C60.0017 22.416 60.2817 22.1467 60.495 21.8V19.936H59.503C58.6603 19.936 58.0577 20.0773 57.695 20.36C57.3323 20.6373 57.151 21.0213 57.151 21.512C57.151 21.96 57.271 22.304 57.511 22.544C57.7563 22.7787 58.1163 22.896 58.591 22.896ZM69.4648 22.744C69.8594 22.744 70.2274 22.6773 70.5688 22.544C70.9101 22.4053 71.2354 22.2267 71.5448 22.008L72.3767 23.16C72.0088 23.4747 71.5608 23.7307 71.0328 23.928C70.5101 24.12 69.9688 24.216 69.4088 24.216C68.5448 24.216 67.8061 24.0347 67.1928 23.672C66.5794 23.304 66.1101 22.7893 65.7848 22.128C65.4594 21.4667 65.2968 20.696 65.2968 19.816C65.2968 18.9573 65.4594 18.192 65.7848 17.52C66.1154 16.8427 66.5901 16.3093 67.2088 15.92C67.8274 15.5253 68.5714 15.328 69.4408 15.328C70.0168 15.328 70.5474 15.4133 71.0328 15.584C71.5181 15.7547 71.9634 16.008 72.3688 16.344L71.5448 17.472C71.2141 17.2427 70.8754 17.0693 70.5288 16.952C70.1874 16.8293 69.8354 16.768 69.4728 16.768C68.8061 16.768 68.2594 17.0133 67.8328 17.504C67.4114 17.9947 67.2008 18.7653 67.2008 19.816C67.2008 20.52 67.2968 21.088 67.4888 21.52C67.6861 21.9467 67.9554 22.2587 68.2968 22.456C68.6381 22.648 69.0274 22.744 69.4648 22.744ZM82.0425 23.552C81.7332 23.7493 81.3625 23.9093 80.9305 24.032C80.4985 24.1547 80.0478 24.216 79.5785 24.216C78.5972 24.216 77.8505 23.9627 77.3385 23.456C76.8318 22.944 76.5785 22.272 76.5785 21.44V16.856H74.6985V15.552H76.5785V13.664L78.3705 13.448V15.552H81.2185L81.0185 16.856H78.3705V21.424C78.3705 21.8773 78.4825 22.216 78.7065 22.44C78.9358 22.6587 79.3092 22.768 79.8265 22.768C80.1358 22.768 80.4212 22.7307 80.6825 22.656C80.9438 22.5813 81.1812 22.4853 81.3945 22.368L82.0425 23.552ZM99.998 15.328C100.318 15.328 100.606 15.3973 100.862 15.536C101.118 15.6747 101.318 15.9173 101.462 16.264C101.611 16.6107 101.686 17.096 101.686 17.72V24H100.094V17.968C100.094 17.5253 100.062 17.208 99.998 17.016C99.9393 16.824 99.782 16.728 99.526 16.728C99.3233 16.728 99.118 16.792 98.91 16.92C98.702 17.0427 98.4913 17.256 98.278 17.56V24H96.83V17.968C96.83 17.5253 96.798 17.208 96.734 17.016C96.6753 16.824 96.518 16.728 96.262 16.728C96.054 16.728 95.846 16.792 95.638 16.92C95.4353 17.0427 95.2273 17.256 95.014 17.56V24H93.414V15.552H94.766L94.886 16.464C95.126 16.128 95.3873 15.856 95.67 15.648C95.9527 15.4347 96.294 15.328 96.694 15.328C97.014 15.328 97.3047 15.408 97.566 15.568C97.8273 15.728 98.0193 16.008 98.142 16.408C98.3767 16.088 98.6433 15.8293 98.942 15.632C99.2407 15.4293 99.5927 15.328 99.998 15.328ZM105.256 20.352C105.293 20.928 105.416 21.4 105.624 21.768C105.832 22.1307 106.104 22.3973 106.44 22.568C106.781 22.7387 107.154 22.824 107.56 22.824C107.976 22.824 108.36 22.76 108.712 22.632C109.064 22.504 109.418 22.3227 109.776 22.088L110.552 23.16C110.157 23.48 109.696 23.736 109.168 23.928C108.64 24.12 108.074 24.216 107.472 24.216C106.597 24.216 105.856 24.0293 105.248 23.656C104.645 23.2827 104.186 22.7627 103.872 22.096C103.557 21.4293 103.4 20.6587 103.4 19.784C103.4 18.936 103.554 18.1787 103.864 17.512C104.173 16.84 104.616 16.3093 105.192 15.92C105.768 15.5253 106.456 15.328 107.256 15.328C108.008 15.328 108.653 15.4987 109.192 15.84C109.736 16.1813 110.154 16.6667 110.448 17.296C110.746 17.92 110.896 18.672 110.896 19.552C110.896 19.696 110.89 19.84 110.88 19.984C110.874 20.1227 110.866 20.2453 110.856 20.352H105.256ZM107.272 16.656C106.712 16.656 106.248 16.856 105.88 17.256C105.517 17.656 105.306 18.28 105.248 19.128H109.16C109.144 18.3333 108.973 17.7227 108.648 17.296C108.328 16.8693 107.869 16.656 107.272 16.656ZM119.603 12.96L119.395 20.2H117.875L117.651 12.96H119.603ZM118.643 21.792C118.99 21.792 119.281 21.912 119.515 22.152C119.745 22.3867 119.859 22.6693 119.859 23C119.859 23.336 119.745 23.624 119.515 23.864C119.281 24.0987 118.99 24.216 118.643 24.216C118.307 24.216 118.022 24.0987 117.787 23.864C117.553 23.624 117.435 23.336 117.435 23C117.435 22.6693 117.553 22.3867 117.787 22.152C118.022 21.912 118.307 21.792 118.643 21.792ZM125.363 12.96L125.155 20.2H123.635L123.411 12.96H125.363ZM124.403 21.792C124.75 21.792 125.038 21.912 125.267 22.152C125.502 22.3867 125.619 22.6693 125.619 23C125.619 23.336 125.502 23.624 125.267 23.864C125.038 24.0987 124.75 24.216 124.403 24.216C124.067 24.216 123.782 24.0987 123.547 23.864C123.313 23.624 123.195 23.336 123.195 23C123.195 22.6693 123.313 22.3867 123.547 22.152C123.782 21.912 124.067 21.792 124.403 21.792Z" fill="white"/>
</svg>
