<svg width="49" height="21" viewBox="0 0 49 21" fill="none" xmlns="http://www.w3.org/2000/svg">
<path d="M7.536 8.76L7.088 12.16H8.272V13.44H6.912L6.584 16H5.08L5.416 13.44H3.392L3.056 16H1.552L1.888 13.44H0.744V12.16H2.056L2.52 8.76H1.336V7.472H2.688L3.016 4.96H4.528L4.176 7.472H6.208L6.544 4.96H8.048L7.704 7.472H8.864V8.76H7.536ZM3.56 12.16H5.584L6.04 8.76H4.008L3.56 12.16Z" fill="#C778DD"/>
<path d="M13.216 3.984V8.584C13.5573 8.168 13.9573 7.856 14.416 7.648C14.8747 7.43467 15.3467 7.328 15.832 7.328C16.6267 7.328 17.2187 7.54933 17.608 7.992C17.9973 8.42933 18.192 9.04533 18.192 9.84V16H16.4V10.12C16.4 9.61333 16.304 9.25067 16.112 9.032C15.92 8.808 15.6107 8.696 15.184 8.696C14.9173 8.696 14.6613 8.75733 14.416 8.88C14.176 8.99733 13.952 9.152 13.744 9.344C13.5413 9.536 13.3653 9.74133 13.216 9.96V16H11.424V4.176L13.216 3.984ZM24.4018 7.328C25.2284 7.328 25.9244 7.512 26.4898 7.88C27.0551 8.248 27.4818 8.76267 27.7698 9.424C28.0631 10.0853 28.2098 10.864 28.2098 11.76C28.2098 12.6507 28.0604 13.432 27.7618 14.104C27.4684 14.7707 27.0364 15.2907 26.4658 15.664C25.9004 16.032 25.2098 16.216 24.3938 16.216C23.5778 16.216 22.8844 16.0373 22.3138 15.68C21.7484 15.3173 21.3164 14.8027 21.0178 14.136C20.7244 13.4693 20.5778 12.6827 20.5778 11.776C20.5778 10.896 20.7244 10.1227 21.0178 9.456C21.3164 8.78933 21.7511 8.26933 22.3218 7.896C22.8924 7.51733 23.5858 7.328 24.4018 7.328ZM24.4018 8.72C23.7564 8.72 23.2711 8.968 22.9458 9.464C22.6204 9.95467 22.4578 10.7253 22.4578 11.776C22.4578 12.8213 22.6178 13.592 22.9378 14.088C23.2631 14.584 23.7484 14.832 24.3938 14.832C25.0391 14.832 25.5218 14.584 25.8418 14.088C26.1671 13.592 26.3298 12.816 26.3298 11.76C26.3298 10.72 26.1698 9.95467 25.8498 9.464C25.5298 8.968 25.0471 8.72 24.4018 8.72ZM36.4355 7.328C36.7555 7.328 37.0435 7.39733 37.2995 7.536C37.5555 7.67467 37.7555 7.91733 37.8995 8.264C38.0488 8.61067 38.1235 9.096 38.1235 9.72V16H36.5315V9.968C36.5315 9.52533 36.4995 9.208 36.4355 9.016C36.3768 8.824 36.2195 8.728 35.9635 8.728C35.7608 8.728 35.5555 8.792 35.3475 8.92C35.1395 9.04267 34.9288 9.256 34.7155 9.56V16H33.2675V9.968C33.2675 9.52533 33.2355 9.208 33.1715 9.016C33.1128 8.824 32.9555 8.728 32.6995 8.728C32.4915 8.728 32.2835 8.792 32.0755 8.92C31.8728 9.04267 31.6648 9.256 31.4515 9.56V16H29.8515V7.552H31.2035L31.3235 8.464C31.5635 8.128 31.8248 7.856 32.1075 7.648C32.3902 7.43467 32.7315 7.328 33.1315 7.328C33.4515 7.328 33.7422 7.408 34.0035 7.568C34.2648 7.728 34.4568 8.008 34.5795 8.408C34.8142 8.088 35.0808 7.82933 35.3795 7.632C35.6782 7.42933 36.0302 7.328 36.4355 7.328ZM41.6933 12.352C41.7306 12.928 41.8533 13.4 42.0613 13.768C42.2693 14.1307 42.5413 14.3973 42.8773 14.568C43.2186 14.7387 43.5919 14.824 43.9973 14.824C44.4133 14.824 44.7973 14.76 45.1493 14.632C45.5013 14.504 45.8559 14.3227 46.2133 14.088L46.9893 15.16C46.5946 15.48 46.1333 15.736 45.6053 15.928C45.0773 16.12 44.5119 16.216 43.9093 16.216C43.0346 16.216 42.2933 16.0293 41.6853 15.656C41.0826 15.2827 40.6239 14.7627 40.3093 14.096C39.9946 13.4293 39.8372 12.6587 39.8372 11.784C39.8372 10.936 39.9919 10.1787 40.3013 9.512C40.6106 8.84 41.0533 8.30933 41.6293 7.92C42.2053 7.52533 42.8933 7.328 43.6933 7.328C44.4453 7.328 45.0906 7.49867 45.6293 7.84C46.1733 8.18133 46.5919 8.66667 46.8853 9.296C47.1839 9.92 47.3333 10.672 47.3333 11.552C47.3333 11.696 47.3279 11.84 47.3173 11.984C47.3119 12.1227 47.3039 12.2453 47.2933 12.352H41.6933ZM43.7093 8.656C43.1493 8.656 42.6853 8.856 42.3173 9.256C41.9546 9.656 41.7439 10.28 41.6853 11.128H45.5973C45.5813 10.3333 45.4106 9.72267 45.0853 9.296C44.7653 8.86933 44.3066 8.656 43.7093 8.656Z" fill="white"/>
</svg>
