<svg width="58" height="21" viewBox="0 0 58 21" fill="none" xmlns="http://www.w3.org/2000/svg">
<path d="M7.336 8.704L6.864 12.248H8.16V13.288H6.712L6.376 16H5.224L5.584 13.288H3.256L2.904 16H1.752L2.112 13.288H0.848V12.248H2.248L2.736 8.704H1.44V7.656H2.872L3.224 4.984H4.376L3.992 7.656H6.344L6.696 4.984H7.848L7.472 7.656H8.752V8.704H7.336ZM3.392 12.248H5.72L6.208 8.704H3.864L3.392 12.248Z" fill="#C778DD"/>
<path d="M17.848 16H15.944L14.856 9.816L13.672 16H11.816L10.28 7.576H11.656L12.728 15.168L14.072 8.648H15.664L16.936 15.168L18.008 7.576H19.32L17.848 16ZM24.4098 7.4C25.2044 7.4 25.8684 7.58133 26.4018 7.944C26.9404 8.30133 27.3431 8.808 27.6098 9.464C27.8818 10.12 28.0178 10.8933 28.0178 11.784C28.0178 12.6427 27.8791 13.4027 27.6018 14.064C27.3244 14.7253 26.9164 15.2453 26.3778 15.624C25.8444 15.9973 25.1831 16.184 24.3938 16.184C23.6044 16.184 22.9404 16.0027 22.4018 15.64C21.8631 15.2773 21.4551 14.768 21.1778 14.112C20.9058 13.4507 20.7697 12.68 20.7697 11.8C20.7697 10.9307 20.9084 10.1653 21.1858 9.504C21.4631 8.84267 21.8711 8.328 22.4098 7.96C22.9538 7.58667 23.6204 7.4 24.4098 7.4ZM24.4098 8.496C23.6844 8.496 23.1351 8.76533 22.7618 9.304C22.3938 9.83733 22.2098 10.6693 22.2098 11.8C22.2098 12.9093 22.3911 13.7333 22.7538 14.272C23.1218 14.8107 23.6684 15.08 24.3938 15.08C25.1191 15.08 25.6631 14.8107 26.0258 14.272C26.3938 13.7333 26.5778 12.904 26.5778 11.784C26.5778 10.664 26.3964 9.83733 26.0338 9.304C25.6711 8.76533 25.1298 8.496 24.4098 8.496ZM30.8755 16V14.968H32.1875V8.608H30.8755V7.576H33.2115L33.4595 9.568C33.7848 8.87467 34.1795 8.33867 34.6435 7.96C35.1075 7.58133 35.7208 7.392 36.4835 7.392C36.7182 7.392 36.9262 7.41067 37.1075 7.448C37.2942 7.48 37.4835 7.52267 37.6755 7.576L37.2835 8.776C37.1075 8.728 36.9475 8.69333 36.8035 8.672C36.6595 8.64533 36.4942 8.632 36.3075 8.632C35.6622 8.632 35.1075 8.86133 34.6435 9.32C34.1795 9.77867 33.8088 10.472 33.5315 11.4V14.968H35.2435V16H30.8755ZM36.3795 10.424V8.592L36.5155 7.576H37.6755L37.4835 10.424H36.3795ZM47.4453 7.576L43.6533 11.368L47.8853 16H46.1173L41.9733 11.4L45.7013 7.576H47.4453ZM41.8213 4.016V16H40.4773V4.184L41.8213 4.016ZM52.847 15.072C53.4923 15.072 54.0017 14.952 54.375 14.712C54.7537 14.4667 54.943 14.1413 54.943 13.736C54.943 13.48 54.895 13.2587 54.799 13.072C54.7083 12.8853 54.519 12.7173 54.231 12.568C53.943 12.4187 53.5003 12.2693 52.903 12.12C52.3217 11.976 51.815 11.8107 51.383 11.624C50.9563 11.432 50.623 11.184 50.383 10.88C50.1483 10.576 50.031 10.1813 50.031 9.696C50.031 9.22133 50.1643 8.81333 50.431 8.472C50.703 8.12533 51.079 7.86133 51.559 7.68C52.039 7.49333 52.5963 7.4 53.231 7.4C53.9083 7.4 54.4977 7.49067 54.999 7.672C55.5057 7.848 55.935 8.06667 56.287 8.328L55.695 9.24C55.375 9.02133 55.023 8.84267 54.639 8.704C54.255 8.56 53.791 8.488 53.247 8.488C52.5857 8.488 52.1163 8.592 51.839 8.8C51.5617 9.00267 51.423 9.26667 51.423 9.592C51.423 9.83733 51.4897 10.0427 51.623 10.208C51.7617 10.368 51.9937 10.5147 52.319 10.648C52.6443 10.776 53.0923 10.9173 53.663 11.072C54.2123 11.216 54.6897 11.3893 55.095 11.592C55.5057 11.7947 55.8257 12.0613 56.055 12.392C56.2843 12.7227 56.399 13.1493 56.399 13.672C56.399 14.2693 56.2283 14.7547 55.887 15.128C55.5457 15.496 55.103 15.7653 54.559 15.936C54.0203 16.1013 53.4497 16.184 52.847 16.184C52.0843 16.184 51.4337 16.0747 50.895 15.856C50.3617 15.632 49.9137 15.3627 49.551 15.048L50.319 14.16C50.6497 14.432 51.0283 14.6533 51.455 14.824C51.887 14.9893 52.351 15.072 52.847 15.072Z" fill="#ABB2BF"/>
</svg>
